<svg width="377" height="129" viewBox="0 0 377 129" fill="none" xmlns="http://www.w3.org/2000/svg">
<path d="M27.8933 65.0489L45.983 101.235L36.647 119.913L9.21503 65.0489L36.647 10.185L45.983 28.8633L27.8933 65.0489ZM71.1357 27.9992L62.2318 10.185L34.7998 65.0489L62.2318 119.913L71.142 102.099L52.614 65.0489L71.1357 27.9992ZM114.384 65.0489L86.9525 119.913L59.5205 65.0489L86.9525 10.185L114.384 65.0489ZM97.3842 84.7791C98.0167 83.5018 98.0167 81.4354 97.3842 80.1643L94.0093 73.3517C94.936 70.5904 95.4807 67.2655 95.4807 63.6839C95.4807 54.1726 91.6486 46.4332 86.9399 46.4332C82.2312 46.4332 78.3992 54.1726 78.3992 63.6839C78.3992 73.1952 82.2312 80.9345 86.9399 80.9345C88.712 80.9345 90.3588 79.8387 91.7238 77.9665L95.0988 84.7791C95.4118 85.4178 95.8251 85.7371 96.2384 85.7371C96.6579 85.7371 97.0712 85.4178 97.3842 84.7791Z" fill="url(#paint0_linear)"/>
<path d="M162.536 98.9803C156.011 98.9803 150.395 96.9704 146.187 93.1446V97.6592H135.123V28.4938H146.187V54.1412C150.395 50.3154 156.018 48.3054 162.536 48.3054C175.898 48.3054 186.367 59.4385 186.367 73.646C186.367 87.8535 175.898 98.9803 162.536 98.9803ZM160.933 58.23C153.682 58.23 146.187 63.9969 146.187 73.6398C146.187 83.2826 153.688 89.0495 160.933 89.0495C169.561 89.0495 175.585 82.7128 175.585 73.6398C175.585 64.5667 169.561 58.23 160.933 58.23Z" fill="#39454E"/>
<path d="M228.978 97.6591V70.7156C228.978 63.3583 224.858 58.6057 218.477 58.6057C209.88 58.6057 205.146 64.5793 205.146 75.4306V97.6591H194.082V49.6266H205.146V54.3792C209.06 50.3968 214.413 48.3055 220.744 48.3055C232.165 48.3055 240.142 56.7085 240.142 68.7369V97.6591H228.978Z" fill="#39454E"/>
<path d="M270.448 98.9803C258.732 98.9803 246.616 89.5003 246.616 73.6398C246.616 57.7792 258.732 48.2992 270.448 48.2992C276.891 48.2992 282.508 50.3154 286.797 54.1538V28.4938H297.955V97.6592H286.797V93.1947C282.476 96.9829 276.86 98.9803 270.448 98.9803ZM272.051 58.23C263.479 58.23 257.493 64.5667 257.493 73.6398C257.493 82.7128 263.479 89.0495 272.051 89.0495C279.302 89.0495 286.797 83.2826 286.797 73.6398C286.797 63.9969 279.295 58.23 272.051 58.23Z" fill="#39454E"/>
<path d="M320.685 28.4938H309.62V97.6592H320.685V28.4938Z" fill="#39454E"/>
<path d="M332.45 97.6592V49.6266H343.514V58.1612C346.727 53.6716 352.118 49.0568 360.715 49.0568C361.879 49.0568 362.881 49.0568 364.202 49.4638L364.678 49.6078L363.939 60.1962L363.282 60.1148C362.568 60.0271 361.441 60.0271 360.627 60.0271C349.594 60.0271 343.521 67.3093 343.521 80.5275V97.6592H332.45Z" fill="#39454E"/>
<defs>
<linearGradient id="paint0_linear" x1="9.21503" y1="65.047" x2="114.382" y2="65.047" gradientUnits="userSpaceOnUse">
<stop stop-color="#088E84"/>
<stop offset="1" stop-color="#0B748D"/>
</linearGradient>
</defs>
</svg>
